<mxfile host="b1a232dd-07e8-4c91-8eed-14bfc4147438" modified="2020-07-31T02:06:15.018Z" agent="5.0 (Windows NT 10.0; Win64; x64) AppleWebKit/537.36 (KHTML, like Gecko) Code/1.47.2 Chrome/78.0.3904.130 Electron/7.3.2 Safari/537.36" etag="C5Z8fotw24-gElAhFW3J" version="13.1.3">
    <diagram id="TQQULSVfMJWxAGPgkGVH" name="Page-1">
        <mxGraphModel dx="1947" dy="792" grid="1" gridSize="10" guides="1" tooltips="1" connect="1" arrows="1" fold="1" page="1" pageScale="1" pageWidth="827" pageHeight="1169" math="0" shadow="0">
            <root>
                <mxCell id="0"/>
                <mxCell id="1" parent="0"/>
                <mxCell id="6FwXy1JC-Eq9aqGfu0mz-1" value="android.webkit.WebSettings" style="html=1;fillColor=none;" parent="1" vertex="1">
                    <mxGeometry x="40" y="230" width="170" height="50" as="geometry"/>
                </mxCell>
                <mxCell id="6FwXy1JC-Eq9aqGfu0mz-2" value="com.android.webview.chromium.ContentSettingsAdapter" style="html=1;fillColor=none;" parent="1" vertex="1">
                    <mxGeometry x="-35" y="345" width="320" height="55" as="geometry"/>
                </mxCell>
                <mxCell id="6FwXy1JC-Eq9aqGfu0mz-3" value="content::WebPreferences" style="html=1;fillColor=none;" parent="1" vertex="1">
                    <mxGeometry x="765" y="470" width="150" height="50" as="geometry"/>
                </mxCell>
                <mxCell id="6FwXy1JC-Eq9aqGfu0mz-4" value="mojom::Render" style="html=1;fillColor=none;" parent="1" vertex="1">
                    <mxGeometry x="784.5" y="590" width="110" height="50" as="geometry"/>
                </mxCell>
                <mxCell id="6FwXy1JC-Eq9aqGfu0mz-5" value="Extends" style="endArrow=block;endSize=16;endFill=0;html=1;dashed=1;strokeWidth=1;entryX=0.5;entryY=1;entryDx=0;entryDy=0;exitX=0.5;exitY=0;exitDx=0;exitDy=0;" parent="1" source="6FwXy1JC-Eq9aqGfu0mz-10" target="6FwXy1JC-Eq9aqGfu0mz-4" edge="1">
                    <mxGeometry width="160" relative="1" as="geometry">
                        <mxPoint x="840" y="715" as="sourcePoint"/>
                        <mxPoint x="-45" y="795" as="targetPoint"/>
                    </mxGeometry>
                </mxCell>
                <mxCell id="6FwXy1JC-Eq9aqGfu0mz-6" value="content::CreateViewParams" style="html=1;fillColor=none;" parent="1" vertex="1">
                    <mxGeometry x="1025" y="470" width="170" height="50" as="geometry"/>
                </mxCell>
                <mxCell id="6FwXy1JC-Eq9aqGfu0mz-7" value="" style="endArrow=diamondThin;endFill=1;endSize=24;html=1;dashed=1;strokeWidth=1;entryX=0;entryY=0.5;entryDx=0;entryDy=0;exitX=1;exitY=0.5;exitDx=0;exitDy=0;" parent="1" source="6FwXy1JC-Eq9aqGfu0mz-3" target="6FwXy1JC-Eq9aqGfu0mz-6" edge="1">
                    <mxGeometry width="160" relative="1" as="geometry">
                        <mxPoint x="25" y="820" as="sourcePoint"/>
                        <mxPoint x="185" y="820" as="targetPoint"/>
                    </mxGeometry>
                </mxCell>
                <mxCell id="6FwXy1JC-Eq9aqGfu0mz-8" value="Use" style="endArrow=open;endSize=12;dashed=1;html=1;strokeWidth=1;entryX=0.5;entryY=1;entryDx=0;entryDy=0;exitX=1;exitY=0.5;exitDx=0;exitDy=0;" parent="1" source="6FwXy1JC-Eq9aqGfu0mz-11" target="6FwXy1JC-Eq9aqGfu0mz-6" edge="1">
                    <mxGeometry width="160" relative="1" as="geometry">
                        <mxPoint x="920" y="740" as="sourcePoint"/>
                        <mxPoint x="185" y="790" as="targetPoint"/>
                        <Array as="points">
                            <mxPoint x="1110" y="759"/>
                        </Array>
                    </mxGeometry>
                </mxCell>
                <mxCell id="6FwXy1JC-Eq9aqGfu0mz-9" value="android_webview::AwCotnentBrowserClient" style="html=1;fillColor=none;" parent="1" vertex="1">
                    <mxGeometry x="-160" y="590" width="240" height="50" as="geometry"/>
                </mxCell>
                <mxCell id="6FwXy1JC-Eq9aqGfu0mz-10" value="content::RenderThreadImpl" style="swimlane;fontStyle=0;childLayout=stackLayout;horizontal=1;startSize=26;fillColor=none;horizontalStack=0;resizeParent=1;resizeParentMax=0;resizeLast=0;collapsible=1;marginBottom=0;" parent="1" vertex="1">
                    <mxGeometry x="720" y="720" width="240" height="52" as="geometry"/>
                </mxCell>
                <mxCell id="6FwXy1JC-Eq9aqGfu0mz-11" value="+ CreateView(CreateViewParams) :void" style="text;strokeColor=none;fillColor=none;align=left;verticalAlign=top;spacingLeft=4;spacingRight=4;overflow=hidden;rotatable=0;points=[[0,0.5],[1,0.5]];portConstraint=eastwest;" parent="6FwXy1JC-Eq9aqGfu0mz-10" vertex="1">
                    <mxGeometry y="26" width="240" height="26" as="geometry"/>
                </mxCell>
                <mxCell id="6FwXy1JC-Eq9aqGfu0mz-12" value="«interface»&lt;br&gt;&lt;b&gt;Content::RenderView&lt;/b&gt;" style="html=1;fillColor=none;" parent="1" vertex="1">
                    <mxGeometry x="157" y="590" width="163" height="50" as="geometry"/>
                </mxCell>
                <mxCell id="6FwXy1JC-Eq9aqGfu0mz-13" value="«interface»&lt;br&gt;&lt;b&gt;IPC::Listener&lt;/b&gt;" style="html=1;fillColor=none;" parent="1" vertex="1">
                    <mxGeometry x="348" y="590" width="163" height="50" as="geometry"/>
                </mxCell>
                <mxCell id="6FwXy1JC-Eq9aqGfu0mz-14" value="Extends" style="endArrow=block;endSize=16;endFill=0;html=1;dashed=1;strokeWidth=1;entryX=0.75;entryY=1;entryDx=0;entryDy=0;exitX=0.25;exitY=0;exitDx=0;exitDy=0;" parent="1" source="6FwXy1JC-Eq9aqGfu0mz-16" target="6FwXy1JC-Eq9aqGfu0mz-12" edge="1">
                    <mxGeometry width="160" relative="1" as="geometry">
                        <mxPoint x="279" y="720" as="sourcePoint"/>
                        <mxPoint x="-33" y="800" as="targetPoint"/>
                    </mxGeometry>
                </mxCell>
                <mxCell id="6FwXy1JC-Eq9aqGfu0mz-15" value="Extends" style="endArrow=block;endSize=16;endFill=0;html=1;dashed=1;strokeWidth=1;entryX=0.25;entryY=1;entryDx=0;entryDy=0;exitX=0.75;exitY=0;exitDx=0;exitDy=0;" parent="1" source="6FwXy1JC-Eq9aqGfu0mz-16" target="6FwXy1JC-Eq9aqGfu0mz-13" edge="1">
                    <mxGeometry width="160" relative="1" as="geometry">
                        <mxPoint x="389" y="720" as="sourcePoint"/>
                        <mxPoint x="249" y="650" as="targetPoint"/>
                    </mxGeometry>
                </mxCell>
                <mxCell id="6FwXy1JC-Eq9aqGfu0mz-16" value="content::RenderViewImpl" style="swimlane;fontStyle=0;childLayout=stackLayout;horizontal=1;startSize=26;fillColor=none;horizontalStack=0;resizeParent=1;resizeParentMax=0;resizeLast=0;collapsible=1;marginBottom=0;" parent="1" vertex="1">
                    <mxGeometry x="224" y="800" width="223" height="78" as="geometry"/>
                </mxCell>
                <mxCell id="6FwXy1JC-Eq9aqGfu0mz-17" value="+ Create() : ReaderViewImpl" style="text;strokeColor=none;fillColor=none;align=left;verticalAlign=top;spacingLeft=4;spacingRight=4;overflow=hidden;rotatable=0;points=[[0,0.5],[1,0.5]];portConstraint=eastwest;" parent="6FwXy1JC-Eq9aqGfu0mz-16" vertex="1">
                    <mxGeometry y="26" width="223" height="26" as="geometry"/>
                </mxCell>
                <mxCell id="6FwXy1JC-Eq9aqGfu0mz-18" value="+ OnUpdateWebPreferences() : void" style="text;strokeColor=none;fillColor=none;align=left;verticalAlign=top;spacingLeft=4;spacingRight=4;overflow=hidden;rotatable=0;points=[[0,0.5],[1,0.5]];portConstraint=eastwest;" parent="6FwXy1JC-Eq9aqGfu0mz-16" vertex="1">
                    <mxGeometry y="52" width="223" height="26" as="geometry"/>
                </mxCell>
                <mxCell id="6FwXy1JC-Eq9aqGfu0mz-19" value="Use" style="endArrow=open;endSize=12;dashed=1;html=1;strokeWidth=1;entryX=0.75;entryY=1;entryDx=0;entryDy=0;exitX=1;exitY=0.5;exitDx=0;exitDy=0;" parent="1" source="6FwXy1JC-Eq9aqGfu0mz-18" target="6FwXy1JC-Eq9aqGfu0mz-6" edge="1">
                    <mxGeometry width="160" relative="1" as="geometry">
                        <mxPoint x="877" y="769" as="sourcePoint"/>
                        <mxPoint x="1065" y="530" as="targetPoint"/>
                        <Array as="points">
                            <mxPoint x="1153" y="865"/>
                        </Array>
                    </mxGeometry>
                </mxCell>
                <mxCell id="6FwXy1JC-Eq9aqGfu0mz-20" value="Use" style="endArrow=open;endSize=12;dashed=1;html=1;strokeWidth=1;entryX=0;entryY=0.5;entryDx=0;entryDy=0;exitX=1;exitY=0.25;exitDx=0;exitDy=0;" parent="1" source="6FwXy1JC-Eq9aqGfu0mz-16" target="6FwXy1JC-Eq9aqGfu0mz-3" edge="1">
                    <mxGeometry width="160" relative="1" as="geometry">
                        <mxPoint x="-30" y="900" as="sourcePoint"/>
                        <mxPoint x="130" y="900" as="targetPoint"/>
                        <Array as="points">
                            <mxPoint x="550" y="820"/>
                            <mxPoint x="550" y="495"/>
                        </Array>
                    </mxGeometry>
                </mxCell>
                <mxCell id="6FwXy1JC-Eq9aqGfu0mz-21" value="Use" style="endArrow=open;endSize=12;dashed=1;html=1;strokeWidth=1;entryX=1;entryY=0.5;entryDx=0;entryDy=0;" parent="1" target="6FwXy1JC-Eq9aqGfu0mz-17" edge="1">
                    <mxGeometry width="160" relative="1" as="geometry">
                        <mxPoint x="842" y="774" as="sourcePoint"/>
                        <mxPoint x="130" y="900" as="targetPoint"/>
                        <Array as="points">
                            <mxPoint x="842" y="839"/>
                        </Array>
                    </mxGeometry>
                </mxCell>
                <mxCell id="6FwXy1JC-Eq9aqGfu0mz-22" value="Use" style="endArrow=open;endSize=12;dashed=1;html=1;entryX=0.5;entryY=0;entryDx=0;entryDy=0;exitX=0.409;exitY=1.135;exitDx=0;exitDy=0;exitPerimeter=0;" parent="1" source="6FwXy1JC-Eq9aqGfu0mz-38" target="6FwXy1JC-Eq9aqGfu0mz-3" edge="1">
                    <mxGeometry width="160" relative="1" as="geometry">
                        <mxPoint x="840" y="395" as="sourcePoint"/>
                        <mxPoint x="55" y="900" as="targetPoint"/>
                    </mxGeometry>
                </mxCell>
                <mxCell id="6FwXy1JC-Eq9aqGfu0mz-23" value="Extends" style="endArrow=block;endSize=16;endFill=0;html=1;dashed=1;strokeWidth=1;exitX=0.5;exitY=0;exitDx=0;exitDy=0;" parent="1" edge="1">
                    <mxGeometry width="160" relative="1" as="geometry">
                        <mxPoint x="-38" y="590" as="sourcePoint"/>
                        <mxPoint x="-40" y="510" as="targetPoint"/>
                    </mxGeometry>
                </mxCell>
                <mxCell id="6FwXy1JC-Eq9aqGfu0mz-24" value="content::ContentBrowserClient" style="swimlane;fontStyle=0;childLayout=stackLayout;horizontal=1;startSize=26;fillColor=none;horizontalStack=0;resizeParent=1;resizeParentMax=0;resizeLast=0;collapsible=1;marginBottom=0;" parent="1" vertex="1">
                    <mxGeometry x="-148" y="455" width="220" height="52" as="geometry"/>
                </mxCell>
                <mxCell id="6FwXy1JC-Eq9aqGfu0mz-25" value="+ OverrideWebkitPrefs() : void" style="text;strokeColor=none;fillColor=none;align=left;verticalAlign=top;spacingLeft=4;spacingRight=4;overflow=hidden;rotatable=0;points=[[0,0.5],[1,0.5]];portConstraint=eastwest;" parent="6FwXy1JC-Eq9aqGfu0mz-24" vertex="1">
                    <mxGeometry y="26" width="220" height="26" as="geometry"/>
                </mxCell>
                <mxCell id="6FwXy1JC-Eq9aqGfu0mz-26" value="content::RenderViewHostImpl" style="swimlane;fontStyle=1;align=center;verticalAlign=top;childLayout=stackLayout;horizontal=1;startSize=26;horizontalStack=0;resizeParent=1;resizeParentMax=0;resizeLast=0;collapsible=1;marginBottom=0;" parent="1" vertex="1">
                    <mxGeometry x="-168" y="800" width="270" height="86" as="geometry"/>
                </mxCell>
                <mxCell id="6FwXy1JC-Eq9aqGfu0mz-27" value="+ OnWebkitPreferencesChanged() : void" style="text;strokeColor=none;fillColor=none;align=left;verticalAlign=top;spacingLeft=4;spacingRight=4;overflow=hidden;rotatable=0;points=[[0,0.5],[1,0.5]];portConstraint=eastwest;" parent="6FwXy1JC-Eq9aqGfu0mz-26" vertex="1">
                    <mxGeometry y="26" width="270" height="26" as="geometry"/>
                </mxCell>
                <mxCell id="6FwXy1JC-Eq9aqGfu0mz-28" value="" style="line;strokeWidth=1;fillColor=none;align=left;verticalAlign=middle;spacingTop=-1;spacingLeft=3;spacingRight=3;rotatable=0;labelPosition=right;points=[];portConstraint=eastwest;" parent="6FwXy1JC-Eq9aqGfu0mz-26" vertex="1">
                    <mxGeometry y="52" width="270" height="8" as="geometry"/>
                </mxCell>
                <mxCell id="6FwXy1JC-Eq9aqGfu0mz-29" value="+ ComputeWebPreferences():WebPreferences" style="text;strokeColor=none;fillColor=none;align=left;verticalAlign=top;spacingLeft=4;spacingRight=4;overflow=hidden;rotatable=0;points=[[0,0.5],[1,0.5]];portConstraint=eastwest;" parent="6FwXy1JC-Eq9aqGfu0mz-26" vertex="1">
                    <mxGeometry y="60" width="270" height="26" as="geometry"/>
                </mxCell>
                <mxCell id="6FwXy1JC-Eq9aqGfu0mz-30" value="Use" style="endArrow=open;endSize=12;dashed=1;html=1;exitX=1;exitY=0.5;exitDx=0;exitDy=0;entryX=0;entryY=0.5;entryDx=0;entryDy=0;" parent="1" source="6FwXy1JC-Eq9aqGfu0mz-25" target="6FwXy1JC-Eq9aqGfu0mz-3" edge="1">
                    <mxGeometry width="160" relative="1" as="geometry">
                        <mxPoint x="-210" y="910" as="sourcePoint"/>
                        <mxPoint x="700" y="490" as="targetPoint"/>
                    </mxGeometry>
                </mxCell>
                <mxCell id="6FwXy1JC-Eq9aqGfu0mz-31" value="content::RenderViewHost" style="swimlane;fontStyle=1;align=center;verticalAlign=top;childLayout=stackLayout;horizontal=1;startSize=26;horizontalStack=0;resizeParent=1;resizeParentMax=0;resizeLast=0;collapsible=1;marginBottom=0;" parent="1" vertex="1">
                    <mxGeometry x="-43" y="673" width="230" height="52" as="geometry"/>
                </mxCell>
                <mxCell id="6FwXy1JC-Eq9aqGfu0mz-32" value="+ OnWebkitPreferencesChanged() : void" style="text;strokeColor=none;fillColor=none;align=left;verticalAlign=top;spacingLeft=4;spacingRight=4;overflow=hidden;rotatable=0;points=[[0,0.5],[1,0.5]];portConstraint=eastwest;" parent="6FwXy1JC-Eq9aqGfu0mz-31" vertex="1">
                    <mxGeometry y="26" width="230" height="26" as="geometry"/>
                </mxCell>
                <mxCell id="6FwXy1JC-Eq9aqGfu0mz-33" value="Extends" style="endArrow=block;endSize=16;endFill=0;html=1;" parent="1" edge="1">
                    <mxGeometry width="160" relative="1" as="geometry">
                        <mxPoint x="34" y="800" as="sourcePoint"/>
                        <mxPoint x="34" y="720" as="targetPoint"/>
                    </mxGeometry>
                </mxCell>
                <mxCell id="6FwXy1JC-Eq9aqGfu0mz-34" value="Use" style="endArrow=open;endSize=12;dashed=1;html=1;entryX=0;entryY=0.25;entryDx=0;entryDy=0;exitX=0;exitY=0.5;exitDx=0;exitDy=0;" parent="1" source="6FwXy1JC-Eq9aqGfu0mz-26" target="6FwXy1JC-Eq9aqGfu0mz-24" edge="1">
                    <mxGeometry width="160" relative="1" as="geometry">
                        <mxPoint x="-170" y="910" as="sourcePoint"/>
                        <mxPoint x="-10" y="910" as="targetPoint"/>
                        <Array as="points">
                            <mxPoint x="-220" y="843"/>
                            <mxPoint x="-220" y="468"/>
                        </Array>
                    </mxGeometry>
                </mxCell>
                <mxCell id="6FwXy1JC-Eq9aqGfu0mz-35" value="android_webview::AwSettings" style="swimlane;fontStyle=1;align=center;verticalAlign=top;childLayout=stackLayout;horizontal=1;startSize=26;horizontalStack=0;resizeParent=1;resizeParentMax=0;resizeLast=0;collapsible=1;marginBottom=0;" parent="1" vertex="1">
                    <mxGeometry x="745" y="312.5" width="230" height="86" as="geometry"/>
                </mxCell>
                <mxCell id="6FwXy1JC-Eq9aqGfu0mz-36" value="+ UpdateWebkitPreferencesLocked:void" style="text;strokeColor=none;fillColor=none;align=left;verticalAlign=top;spacingLeft=4;spacingRight=4;overflow=hidden;rotatable=0;points=[[0,0.5],[1,0.5]];portConstraint=eastwest;" parent="6FwXy1JC-Eq9aqGfu0mz-35" vertex="1">
                    <mxGeometry y="26" width="230" height="26" as="geometry"/>
                </mxCell>
                <mxCell id="6FwXy1JC-Eq9aqGfu0mz-37" value="" style="line;strokeWidth=1;fillColor=none;align=left;verticalAlign=middle;spacingTop=-1;spacingLeft=3;spacingRight=3;rotatable=0;labelPosition=right;points=[];portConstraint=eastwest;" parent="6FwXy1JC-Eq9aqGfu0mz-35" vertex="1">
                    <mxGeometry y="52" width="230" height="8" as="geometry"/>
                </mxCell>
                <mxCell id="6FwXy1JC-Eq9aqGfu0mz-38" value="+ PopulateWebPreferences() : void" style="text;strokeColor=none;fillColor=none;align=left;verticalAlign=top;spacingLeft=4;spacingRight=4;overflow=hidden;rotatable=0;points=[[0,0.5],[1,0.5]];portConstraint=eastwest;" parent="6FwXy1JC-Eq9aqGfu0mz-35" vertex="1">
                    <mxGeometry y="60" width="230" height="26" as="geometry"/>
                </mxCell>
                <mxCell id="6FwXy1JC-Eq9aqGfu0mz-39" value="Use" style="endArrow=open;endSize=12;dashed=1;html=1;exitX=1;exitY=0.5;exitDx=0;exitDy=0;entryX=0.004;entryY=0.25;entryDx=0;entryDy=0;entryPerimeter=0;" parent="1" source="6FwXy1JC-Eq9aqGfu0mz-9" target="6FwXy1JC-Eq9aqGfu0mz-38" edge="1">
                    <mxGeometry width="160" relative="1" as="geometry">
                        <mxPoint x="82" y="504" as="sourcePoint"/>
                        <mxPoint x="690" y="380" as="targetPoint"/>
                        <Array as="points">
                            <mxPoint x="120" y="615"/>
                            <mxPoint x="120" y="440"/>
                            <mxPoint x="700" y="440"/>
                            <mxPoint x="700" y="379"/>
                        </Array>
                    </mxGeometry>
                </mxCell>
                <mxCell id="6FwXy1JC-Eq9aqGfu0mz-40" value="org.chromium.android_webview.AwSettings.EventHandler" style="swimlane;fontStyle=1;align=center;verticalAlign=top;childLayout=stackLayout;horizontal=1;startSize=26;horizontalStack=0;resizeParent=1;resizeParentMax=0;resizeLast=0;collapsible=1;marginBottom=0;" parent="1" vertex="1">
                    <mxGeometry x="335.5" y="230" width="340" height="52" as="geometry"/>
                </mxCell>
                <mxCell id="6FwXy1JC-Eq9aqGfu0mz-41" value="+ updateWebkitPrefencesLock(): void" style="text;strokeColor=none;fillColor=none;align=left;verticalAlign=top;spacingLeft=4;spacingRight=4;overflow=hidden;rotatable=0;points=[[0,0.5],[1,0.5]];portConstraint=eastwest;" parent="6FwXy1JC-Eq9aqGfu0mz-40" vertex="1">
                    <mxGeometry y="26" width="340" height="26" as="geometry"/>
                </mxCell>
                <mxCell id="6FwXy1JC-Eq9aqGfu0mz-42" value="" style="endArrow=diamondThin;endFill=1;endSize=24;html=1;entryX=0.5;entryY=0;entryDx=0;entryDy=0;" parent="1" edge="1">
                    <mxGeometry width="160" relative="1" as="geometry">
                        <mxPoint x="500" y="283" as="sourcePoint"/>
                        <mxPoint x="500" y="348" as="targetPoint"/>
                    </mxGeometry>
                </mxCell>
                <mxCell id="6FwXy1JC-Eq9aqGfu0mz-43" value="org.chromium.android_webview.AwSettings" style="swimlane;fontStyle=0;childLayout=stackLayout;horizontal=1;startSize=26;fillColor=none;horizontalStack=0;resizeParent=1;resizeParentMax=0;resizeLast=0;collapsible=1;marginBottom=0;" parent="1" vertex="1">
                    <mxGeometry x="365" y="348" width="300" height="52" as="geometry"/>
                </mxCell>
                <mxCell id="6FwXy1JC-Eq9aqGfu0mz-44" value="+ updateWebkitPreferencesOnUiThreadLocked(): void" style="text;strokeColor=none;fillColor=none;align=left;verticalAlign=top;spacingLeft=4;spacingRight=4;overflow=hidden;rotatable=0;points=[[0,0.5],[1,0.5]];portConstraint=eastwest;" parent="6FwXy1JC-Eq9aqGfu0mz-43" vertex="1">
                    <mxGeometry y="26" width="300" height="26" as="geometry"/>
                </mxCell>
                <mxCell id="6FwXy1JC-Eq9aqGfu0mz-45" value="" style="endArrow=diamondThin;endFill=1;endSize=24;html=1;entryX=1;entryY=0.5;entryDx=0;entryDy=0;exitX=-0.007;exitY=-0.038;exitDx=0;exitDy=0;exitPerimeter=0;" parent="1" source="6FwXy1JC-Eq9aqGfu0mz-44" target="6FwXy1JC-Eq9aqGfu0mz-2" edge="1">
                    <mxGeometry width="160" relative="1" as="geometry">
                        <mxPoint x="90" y="910" as="sourcePoint"/>
                        <mxPoint x="250" y="910" as="targetPoint"/>
                    </mxGeometry>
                </mxCell>
                <mxCell id="6FwXy1JC-Eq9aqGfu0mz-46" value="Extends" style="endArrow=block;endSize=16;endFill=0;html=1;dashed=1;strokeWidth=1;entryX=0.5;entryY=1;entryDx=0;entryDy=0;exitX=0.5;exitY=0;exitDx=0;exitDy=0;" parent="1" source="6FwXy1JC-Eq9aqGfu0mz-2" target="6FwXy1JC-Eq9aqGfu0mz-1" edge="1">
                    <mxGeometry width="160" relative="1" as="geometry">
                        <mxPoint x="401" y="810" as="sourcePoint"/>
                        <mxPoint x="399" y="650" as="targetPoint"/>
                    </mxGeometry>
                </mxCell>
                <mxCell id="6FwXy1JC-Eq9aqGfu0mz-47" value="Use" style="endArrow=open;endSize=12;dashed=1;html=1;entryX=0.787;entryY=1.115;entryDx=0;entryDy=0;entryPerimeter=0;exitX=1;exitY=0.5;exitDx=0;exitDy=0;" parent="1" source="6FwXy1JC-Eq9aqGfu0mz-38" target="6FwXy1JC-Eq9aqGfu0mz-32" edge="1">
                    <mxGeometry width="160" relative="1" as="geometry">
                        <mxPoint x="-230" y="910" as="sourcePoint"/>
                        <mxPoint x="-70" y="910" as="targetPoint"/>
                        <Array as="points">
                            <mxPoint x="1230" y="386"/>
                            <mxPoint x="1220" y="900"/>
                            <mxPoint x="138" y="900"/>
                        </Array>
                    </mxGeometry>
                </mxCell>
                <mxCell id="6FwXy1JC-Eq9aqGfu0mz-48" value="android_webview::AwRenderViewHostExt" style="html=1;fillColor=none;" parent="1" vertex="1">
                    <mxGeometry x="1280" y="345" width="230" height="54" as="geometry"/>
                </mxCell>
                <mxCell id="6FwXy1JC-Eq9aqGfu0mz-49" value="content::WebContentObserver" style="html=1;fillColor=none;" parent="1" vertex="1">
                    <mxGeometry x="1280" y="226" width="230" height="54" as="geometry"/>
                </mxCell>
                <mxCell id="6FwXy1JC-Eq9aqGfu0mz-50" value="Extends" style="endArrow=block;endSize=16;endFill=0;html=1;entryX=0.5;entryY=1;entryDx=0;entryDy=0;exitX=0.5;exitY=0;exitDx=0;exitDy=0;" parent="1" source="6FwXy1JC-Eq9aqGfu0mz-48" target="6FwXy1JC-Eq9aqGfu0mz-49" edge="1">
                    <mxGeometry width="160" relative="1" as="geometry">
                        <mxPoint x="280" y="940" as="sourcePoint"/>
                        <mxPoint x="440" y="940" as="targetPoint"/>
                    </mxGeometry>
                </mxCell>
                <mxCell id="6FwXy1JC-Eq9aqGfu0mz-51" value="Use" style="endArrow=open;endSize=12;dashed=1;html=1;entryX=0;entryY=0.25;entryDx=0;entryDy=0;" parent="1" target="6FwXy1JC-Eq9aqGfu0mz-48" edge="1">
                    <mxGeometry width="160" relative="1" as="geometry">
                        <mxPoint x="975" y="359" as="sourcePoint"/>
                        <mxPoint x="1240" y="352" as="targetPoint"/>
                    </mxGeometry>
                </mxCell>
                <mxCell id="6FwXy1JC-Eq9aqGfu0mz-52" value="Use" style="endArrow=open;endSize=12;dashed=1;html=1;fontColor=#000000;entryX=0.5;entryY=0;entryDx=0;entryDy=0;" parent="1" target="6FwXy1JC-Eq9aqGfu0mz-53" edge="1">
                    <mxGeometry width="160" relative="1" as="geometry">
                        <mxPoint x="340" y="880" as="sourcePoint"/>
                        <mxPoint x="160" y="980" as="targetPoint"/>
                    </mxGeometry>
                </mxCell>
                <mxCell id="6FwXy1JC-Eq9aqGfu0mz-53" value="blink::WebSettings" style="html=1;labelBackgroundColor=none;fontColor=#000000;fillColor=none;" parent="1" vertex="1">
                    <mxGeometry x="230" y="970" width="220" height="50" as="geometry"/>
                </mxCell>
                <mxCell id="6FwXy1JC-Eq9aqGfu0mz-54" value="blink::WebSettingsImpl" style="html=1;labelBackgroundColor=none;fontColor=#000000;fillColor=none;" parent="1" vertex="1">
                    <mxGeometry x="230" y="1090" width="220" height="50" as="geometry"/>
                </mxCell>
                <mxCell id="6FwXy1JC-Eq9aqGfu0mz-55" value="Extends" style="endArrow=block;endSize=16;endFill=0;html=1;fontColor=#000000;entryX=0.5;entryY=1;entryDx=0;entryDy=0;exitX=0.5;exitY=0;exitDx=0;exitDy=0;" parent="1" source="6FwXy1JC-Eq9aqGfu0mz-54" target="6FwXy1JC-Eq9aqGfu0mz-53" edge="1">
                    <mxGeometry width="160" relative="1" as="geometry">
                        <mxPoint x="-230" y="1160" as="sourcePoint"/>
                        <mxPoint x="-70" y="1160" as="targetPoint"/>
                    </mxGeometry>
                </mxCell>
                <mxCell id="6FwXy1JC-Eq9aqGfu0mz-56" value="" style="endArrow=diamondThin;endFill=1;endSize=24;html=1;fontColor=#000000;entryX=1;entryY=0.5;entryDx=0;entryDy=0;" parent="1" source="6FwXy1JC-Eq9aqGfu0mz-57" target="6FwXy1JC-Eq9aqGfu0mz-54" edge="1">
                    <mxGeometry width="160" relative="1" as="geometry">
                        <mxPoint x="610" y="1115" as="sourcePoint"/>
                        <mxPoint x="-70" y="1160" as="targetPoint"/>
                    </mxGeometry>
                </mxCell>
                <mxCell id="6FwXy1JC-Eq9aqGfu0mz-57" value="blink::Settings" style="html=1;labelBackgroundColor=none;fontColor=#000000;fillColor=none;" parent="1" vertex="1">
                    <mxGeometry x="610" y="1090" width="110" height="50" as="geometry"/>
                </mxCell>
            </root>
        </mxGraphModel>
    </diagram>
</mxfile>